PathFileType	4	(X/Y/Z)	C:\Users\chris\Documents\GitHub\baseballds\vids\pitch5_Sports2D\pitch5_Sports2D_px_person01.trc
DataRate	CameraRate	NumFrames	NumMarkers	Units	OrigDataRate	OrigDataStartFrame	OrigNumFrames
30	30	6	22	m	30	93	149
Frame#	Time	Hip			RHip			RKnee			RAnkle			RBigToe			RSmallToe			RHeel			LHip			LKnee			LAnkle			LBigToe			LSmallToe			LHeel			Neck			Head			Nose			RShoulder			RElbow			RWrist			LShoulder			LElbow			LWrist		
		X1	Y1	Z1	X2	Y2	Z2	X3	Y3	Z3	X4	Y4	Z4	X5	Y5	Z5	X6	Y6	Z6	X7	Y7	Z7	X8	Y8	Z8	X9	Y9	Z9	X10	Y10	Z10	X11	Y11	Z11	X12	Y12	Z12	X13	Y13	Z13	X14	Y14	Z14	X15	Y15	Z15	X16	Y16	Z16	X17	Y17	Z17	X18	Y18	Z18	X19	Y19	Z19	X20	Y20	Z20	X21	Y21	Z21	X22	Y22	Z22
93	3.1	402.3048251031474	554.0539258754635	0.0	375.18441657499443	558.4532608098624	0.0	370.1408954803743	662.3248166200232	0.0	374.79401951923404	753.1918001899694	0.0	394.9563841531307	781.4611926702258	0.0	378.6378216921678	783.4038980934272	0.0	371.00964871153593	766.6133811510804	0.0	430.36783796737194	553.8032778735331	0.0	461.48265807145344	644.5791212789628	0.0	452.6232013613205	741.5473204427883	0.0	485.22479524204897	776.2784578968158	0.0	487.6976767555061	770.5831611069314	0.0	440.9095460291228	758.7433899260643	0.0	393.4928490635335	402.34840192738824	0.0	410.69450193901247	335.31670154067376	0.0	427.3828863009528	373.555633007449	0.0	340.2770089251821	420.9403201080614	0.0	321.3969062137565	490.25101657120445	0.0	341.60185305907845	539.8007039279564	0.0	437.3572962241062	421.1238435285684	0.0	436.1095443218146	488.8701649158005	0.0	423.51198522692295	532.0027213491317	0.0
94	3.1333333333333333	400.2457957966904	553.7503820954362	0.0	372.7803683398231	558.2828059513072	0.0	368.55293588306466	662.2314700277796	0.0	374.63428743716315	752.4936061497827	0.0	393.63800091488673	781.0008789744068	0.0	377.0382532515252	782.702424340065	0.0	372.0267267839986	765.6674790156094	0.0	428.69255547846944	553.7488944714784	0.0	454.14410677961394	645.8455927496703	0.0	449.0964237836924	746.3975668943974	0.0	481.2403594898035	779.3534503335507	0.0	483.74404588009907	774.2763785265608	0.0	438.1312332196553	764.3799146441189	0.0	391.7445095031661	401.8185431746183	0.0	407.6067552013718	334.2024413961306	0.0	424.4924258285494	372.0533844802848	0.0	337.3708968097375	420.9264759849863	0.0	320.272926520911	491.16976526640514	0.0	341.81640418290704	538.3722154960801	0.0	436.9345205745371	421.5275756913701	0.0	435.06668812659825	488.68040267524316	0.0	422.44305522422474	531.2589031406402	0.0
95	3.1666666666666665	398.66978448643044	554.3725175649863	0.0	371.00352095475625	557.9110062392808	0.0	366.88753593520414	661.9098863488431	0.0	373.9827405285159	751.4006962236591	0.0	392.6210183423123	780.7500096361593	0.0	375.784366978212	782.2885850151215	0.0	372.57866955026583	764.4873446075798	0.0	427.4175499429129	554.1000027659678	0.0	446.28744833140854	646.9692705277746	0.0	444.4393022861731	750.6311117537879	0.0	476.43635720765	782.446138155826	0.0	479.0458179658333	777.9329468582594	0.0	434.15517897522705	769.2022149178492	0.0	390.3645000816113	401.8153598040869	0.0	404.5619079073565	333.0591287246882	0.0	422.0869556734039	371.2821179335961	0.0	334.95518496434784	421.6192616687963	0.0	319.4710808338261	492.4772572313461	0.0	343.0255035324256	537.9781470461286	0.0	436.83913446166736	421.4967867132297	0.0	434.74771894398305	487.9181877904717	0.0	414.5088828222132	530.5671121748071	0.0
96	3.2	397.16558043986805	555.2843244298448	0.0	369.6951095404871	557.9705219339579	0.0	365.487417459451	662.1771386158628	0.0	373.0454965527167	750.6060980185467	0.0	392.0870314634776	780.244396372447	0.0	375.42152802176633	782.0644418830767	0.0	372.3898086479764	764.0312200275011	0.0	426.45112292406327	554.855599795485	0.0	438.93123137061036	649.352127631887	0.0	438.8313711067115	754.60908487754	0.0	469.95950885600655	785.6503228008671	0.0	472.66993727984584	781.7946023756546	0.0	429.0599346694027	773.3014709396132	0.0	389.333373355373	401.6741717659388	0.0	401.4937844446585	332.26644401450477	0.0	419.488925659163	370.7376064461124	0.0	333.48839763078195	422.3118308082963	0.0	319.15206831889856	493.8367323822228	0.0	344.98060528677024	538.1456993966699	0.0	436.7428507267219	421.14956435146416	0.0	435.2757053396603	486.8840512701403	0.0	405.7912257252441	529.7062959113302	0.0
97	3.2333333333333334	395.32295409123327	555.8737938715917	0.0	368.42759026549925	559.2592811404957	0.0	364.48482935188497	663.2878720127205	0.0	372.15938329102914	750.5470578057985	0.0	392.17879366527734	779.8144993287704	0.0	376.1647169515903	782.0714771618291	0.0	371.6335990307234	764.8572804041747	0.0	425.2859644046364	556.2764233522685	0.0	432.71332995268267	653.3785378783456	0.0	432.69802236008354	758.0578331538079	0.0	461.072647005938	788.2416952404037	0.0	464.2782282925641	785.023343289154	0.0	423.1682335447627	776.5630580631615	0.0	388.42103371380443	401.0994332053679	0.0	398.5622871391771	332.5220010039816	0.0	416.11562269022437	370.2964090011895	0.0	332.97398501193356	422.52354828489547	0.0	319.1490131560417	494.579927585053	0.0	347.34091228665807	537.8213256744822	0.0	436.2819825727372	420.6975971445011	0.0	436.1875559177388	485.9346052389816	0.0	400.94313871394115	528.6680810369477	0.0
98	3.2666666666666666	393.5333419754463	556.1347406034018	0.0	367.00397264691634	560.8816007751788	0.0	363.7199843334172	664.265109344508	0.0	371.6253625025664	751.2909797003501	0.0	393.3757372115853	780.2863629930843	0.0	377.85712488809315	782.705003833126	0.0	370.80958794322726	766.5854241998002	0.0	423.5949069403458	557.806887207095	0.0	427.54062502845096	657.2637076373903	0.0	426.29604309891266	759.6583654368532	0.0	449.3684725867604	789.5591104707911	0.0	454.38125265738876	786.6680217486565	0.0	416.93333492244386	777.9423223374517	0.0	387.69477614112805	400.7067187190175	0.0	396.25218498919173	333.4303675812831	0.0	412.4571300268839	370.55243562340877	0.0	332.8597299558987	422.4956225034309	0.0	319.2287830153299	494.4292255874135	0.0	349.6700202928604	537.2464348805577	0.0	435.6028692927105	420.2617962595309	0.0	437.01151915618004	485.5041013587559	0.0	398.73902138734724	528.142469832439	0.0
